<?xml version="1.0" encoding="UTF-8"?>
<svg width="1200pt" height="1200pt" version="1.1" viewBox="0 0 1200 1200" xmlns="http://www.w3.org/2000/svg">
 <g>
  <path d="m327.06 220.86c114.77-10.512 229.24 5.9883 343.4 16.824 50.523 4.7891 101.3 7.1484 151.96 9.6992 55.586 2.8125 104.79 16.375 160.44 5.3633-6.5859-5.0117-13.188-10.051-19.773-15.062 4.4492 70.574-7.9492 140.68-4.9141 211.4 3.5 81.539 11.301 165.73-1.5391 246.65-11.148 70.211-7.3984 135.25-8.6641 205.96-0.48828 26.648-3.6641 54.551 2.3125 80.875 7.8242 34.562 24.273 65.262 24.602 101.36l15.625-15.625c-124.3-0.22656-251.2-9.0625-375.12 2.4883-66.898 6.2383-194.11 42.262-250.15-7.9375-23.137-20.727-1.875-79.812 1.8984-103.64 4.7891-30.113 1.5391-61.773-0.13672-92.012-3.8984-70.262-17.164-140.01-26.375-209.65-19.551-147.75 0.73828-301.04 4.9883-449.39 0.57422-20.164-30.676-20.102-31.25 0-4.5508 158.54-23.898 319.65-1.2734 477.43 13.352 93.102 35.375 193.1 20.426 287.29-6.2109 39.137-16.562 78.875 9.625 112.07 42.977 54.512 166.44 28.824 222.6 22.586 140.93-15.637 283.2-8.2266 424.76-7.9883 8.4609 0.011719 15.699-7.1133 15.625-15.625-0.23828-26.301-6.1484-47.836-15.363-72.574-13.5-36.227-12.887-71.852-11.539-109.66 1.3125-36.914-2.5508-73.676-3.5625-110.55-1.0391-38.352 10.898-75.562 15.188-113.39 8.5391-75.387 1.7383-153.04-1.4141-228.68-2.9375-70.711 9.3633-140.85 4.9141-211.4-0.67578-10.625-9.4258-17.113-19.773-15.062-58.164 11.5-115.82-4.6484-174.12-7.5859-50.75-2.5508-101.39-5.8867-151.96-10.676-107.04-10.164-213.81-24.586-321.41-14.738-19.91 1.8008-20.086 33.074-0.011719 31.238z"/>
  <path d="m321.16 991.66c-26.25 0-54.914 3.1992-81-0.77344-13.727-2.0859-6.6992-89.512-6.4609-98.727 2.25-87.238 2.2891-173.52-0.6875-260.77-5.9609-175.59-0.085937-351.12-5.3359-526.41l-15.625 15.625c131.08-0.42578 262.07-6.4023 393.16-4.4023 58.625 0.88672 117.6 3.4609 176.04 8.0742 12.664 0.98828 59.688-1.0625 64.352 18.125 6.5117 26.875 3.8359 53.289 2.5 80.488-0.98828 20.148 30.262 20.051 31.25 0 1.3359-27.352 11.801-88.898-12.477-111.14-27.336-25.023-94.539-19.688-128.48-21.688-175.48-10.312-350.75-1.2617-526.34-0.72656-8.3242 0.023437-15.887 7.0859-15.625 15.625 3.0625 102.36-3.8242 204.81-1.8125 307.27 2.2383 113.85 8.125 227.61 10.648 341.46 1.7266 78.363-17.699 167.62 2.2617 244.14 10.562 40.5 86.812 25.062 113.62 25.062 20.164 0.019531 20.164-31.23 0.003906-31.23z"/>
  <path d="m431.46 370.65c121.36-30.227 244.26 58.602 363.48 4.3516 18.324-8.3359 2.4258-35.262-15.773-26.977-112.23 51.074-238.51-36.75-356.01-7.5-19.551 4.8633-11.254 35 8.3086 30.125z"/>
  <path d="m428.52 512.21c159.55-35.711 321.43 10.164 482.38 3.4883 20.074-0.82422 20.148-32.074 0-31.25-164.06 6.7891-327.94-38.801-490.69-2.3633-19.66 4.3906-11.324 34.516 8.3125 30.125z"/>
  <path d="m427.3 669.04c155.27-9.625 313.84-26.449 467.65 5.3633 19.664 4.0625 28.023-26.051 8.3008-30.125-156.81-32.438-317.6-16.301-475.95-6.4883-20.012 1.25-20.137 32.5 0 31.25z"/>
  <path d="m415.5 798.8c165.84-13.688 332.29-6.5625 498.36-14.738 20.051-0.98828 20.148-32.238 0-31.25-166.06 8.1641-332.52 1.0508-498.36 14.738-19.926 1.6484-20.102 32.91 0 31.25z"/>
  <path d="m422.62 945.65c72.387-24.164 148.32-21.824 223.69-24.238 79.824-2.5508 158-21.086 238.06-19.387 20.164 0.42578 20.113-30.824 0-31.25-79.938-1.6992-158.39 15.539-238.06 19.387-78.523 3.8008-156.43 0.13672-232 25.363-19.012 6.3516-10.863 36.527 8.3125 30.125z"/>
 </g>
</svg>
