<?xml version="1.0" encoding="UTF-8"?>
<svg width="1200pt" height="1200pt" version="1.1" viewBox="0 0 1200 1200" xmlns="http://www.w3.org/2000/svg">
 <g>
  <path d="m916.18 361.23c-2.0078 67.828-41.363 139.81-115.53 193.71-25.047 18.199-47.441 40.004-71.738 59.293-34.105 27.074-68.82 53.379-103.34 79.93-56.07 43.137-88.184 95.5-71.512 170.07 8.3398 37.305-30.055 84.508-68.078 88.168-14.117 1.3594-28.465 0.76953-42.461 2.7773-6.5781 1.8984-13.664 0.66016-19.211-3.3555s-8.9375-10.359-9.1875-17.203c-10.25-57.672-23.809-115.11-28.633-173.25-2.6133-31.512 10.75-64.16 15.449-96.508 11.516-79.27 72.98-120.86 126.57-167.89 39.621-34.773 80.945-67.246 97.328-120.65 12.477-40.664 0.046874-75.867-24.527-107.05-19.031-24.152-53.078-24.684-79.203-4.8438-27.223 20.672-36.609 51.348-47.66 81.551v0.007813c-4.8906 10.43-11.391 20.023-19.262 28.43-6.0859 7.6094-18.195 13.395-19.492 21.32-5.5469 33.91-28.215 29.148-51.727 26.949-21.254-1.9883-42.695-2.3438-64.062-2.5781-24.621-0.27344-39.715-10.645-36.641-36.668 9.4375-79.867 10.645-161.55 65.645-229.3l0.003906-0.003906c43.082-52.941 102.08-90.586 168.25-107.35 131.24-35.312 243.36 3.5938 334.73 101.32 45.43 48.59 70.562 129.45 64.289 213.12zm-420.39 560.28c-0.71875-39.145-6.4336-78.723-1.1172-116.76 11.57-82.734 71.504-133.77 135.07-176.73 90.133-60.922 170.12-128.27 208.74-234.41 17.668-48.555 25.023-98.273 1.3828-144.56-33.414-65.426-75.629-126.17-147.46-155.24-60.996-24.688-124.59-39.941-188.46-10.082h0.003906c-34.457 14.402-66.891 33.223-96.492 55.988-31.262 26.375-64.992 57.16-80.148 93.355-17.609 42.062-17.016 91.988-22.238 138.73 0.61719 9.6562 6.1719 18.309 14.691 22.895 26.395 5.3164 53.551 6.8477 79.18 9.6367 1.0703-54.887 16.055-108.61 43.547-156.12 18.055-29.836 42.797-56.793 79.93-62.109 115.86-16.586 183.68 63.949 168 167.74h0.003906c-8.6797 55.211-37.273 105.33-80.391 140.89-39.809 33.988-82.082 65.266-124.65 95.812-24.238 16.98-43.918 39.68-57.289 66.082-13.375 26.402-20.027 55.695-19.375 85.281-0.26953 49.941 11.16 100.4 21.379 149.81 8.332 40.289 26.312 46.496 65.699 29.797zm383.42-680.84c-19.699 20.129-14.676 40.438 13.117 63.605-21.617 17.66-26.891 38.168-13.988 54.031v-0.003906c-8.918 14.52-16.008 30.082-21.098 46.344-1.082 6.1875 11.922 14.836 22.926 27.375 13.367-69.383 26.41-129.52-0.95703-191.35zm-213.81 48.742c-15.691-53.344-56.543-83.637-105.36-76.996 17.047 24.93 42.098 24.977 66.215 25.566-1.7812 36.602 10.414 52.852 39.141 51.43zm201.21-61.574c-2.5664-32.27-30.703-72.219-58.387-74.848 9.2266 6.6719 18.457 13.344 27.805 20.102-5.0938 24.523 4.7109 43.473 30.582 54.746zm-16.359 200.51c-25.367 38.113-25.367 38.113 1.8828 50.387 6.7617-11.516 13.637-23.215 21.414-36.461zm-419.67-131.61c9.3242 11.273 14.699 17.77 20.074 24.266v0.003906c7.7695-7.9844 14.621-16.816 20.418-26.332-1.4219-6.3203-4.8828-12-9.8516-16.156-10.648 5.3125-20.891 11.402-30.641 18.219zm28.246-41.363c22.941 19.508 36.051 12.773 46.941-10.242-7.1133-5.2305-14.414-10.598-22.941-16.871-8.6289 9.75-15.895 17.957-24 27.117zm194.57 122.03 13.734-0.48828c0.95312-16.273 2.4414-32.547 2.4883-48.828h0.003907c-0.78906-4.7656-3.4688-9.0039-7.4375-11.758-3.7617-0.019532-7.3438 1.6055-9.8086 4.4453-0.24219 18.871 0.52344 37.75 1.0195 56.629zm159.76 100.61c-5.9062 15.543-10.223 26.898-14.539 38.254 3.9727 2.5859 8.5234 4.1406 13.246 4.5312 9.3945-8.0352 18.328-16.594 26.766-25.629-8.5469-5.7578-14.16-9.5391-25.469-17.156zm-197.12-34.25 14.207 7.0234 23.238-51.086-9.8398-4.5469zm121.21 135.39c17.676-14.246 35.352-28.492 53.672-43.258-15.207-8.5938-32.82 5.2305-53.672 43.258zm-228.88-364.08-2.6484 10.066 41.676 10.191c-6.8633-38.688-23.961-25.922-39.027-20.258zm-88.02 156.26 9.6875 5.0898c6.4453-10.957 12.887-21.914 19.332-32.871-5.0781-2.7578-10.152-5.5195-15.23-8.2773zm111.41 406.02-9.375-1.3945-8.1641 50.258 10.137 1.5977zm212.34-688.04-3.5508 3.8281 51.688 40.047 4.3359-5.9102c-2.0469-2.6602-4.3672-5.0938-6.9219-7.2656-15.082-10.383-30.348-20.496-45.551-30.699z"/>
  <path d="m527.63 1156.1c-28.461 3.2188-56.875 7.4609-85.426 8.832-8.2617-1.7578-15.051-7.6211-17.988-15.543-6.0859-30.746-9.9961-61.945-14.023-93.07-2.3555-18.219 33.402-51.871 55.258-53.195 30.832-1.8711 61.625-4.6953 92.48-5.5664 7.0312 0.89062 13.25 4.9844 16.844 11.09 3.3594 6.5547-0.21094 16.672 3.1602 23.211 25.715 49.824 0.875 86.832-30.047 122.25h0.003906c-5.3086 4.6953-11.199 8.6875-17.531 11.871zm-7.9609-21.156c-3.0312-22.75-5.8047-43.535-9.0312-67.723-21.781-3.3203-43.688-6.6562-68.199-10.391 0.69922 25.594 0.011719 45.891 2.6211 65.758v-0.003906c3.2617 7.1172 9.8594 12.141 17.586 13.391 19.016 0.62109 38.047 0.27734 57.023-1.0312z"/>
 </g>
</svg>
