<?xml version="1.0" encoding="UTF-8"?>
<svg width="1200pt" height="1200pt" version="1.1" viewBox="0 0 1200 1200" xmlns="http://www.w3.org/2000/svg">
 <path d="m1175.2 477.36c-19.887-13.438-38.152-29.125-54.438-46.754-24.176-25.617-45.789-53.316-69.008-80.055l0.003907 0.003907c-42.918-50.461-89.414-97.762-139.13-141.54-18.477-17.004-43.75-24.562-68.527-20.492-34.742 5.125-69.645 8.9648-104.55 12.488-127.88 10.395-252.73 44.375-368.24 100.23-30.332 15.371-58.312 34.996-83.098 58.277-26.738 24.977-52.996 50.594-78.133 77.172-67.453 69.098-125.44 146.84-172.43 231.2-10.246 19.371-17.613 40.023-28.02 58.918-13.289 24.656-13.77 32.02 4.8047 54.117 38.266 44.668 76.371 89.5 116.24 132.73 13.164 14.27 25.359 29.41 36.504 45.312 5.1289 8.2422 14.145 13.266 23.855 13.289 26.738 1.7617 53.477 5.125 80.055 7.043 82.613 5.7656 165.39 11.047 236.96 16.012h181.72c59.719 0.96094 118.32 16.012 178.36 14.57h-0.003906c3.0312 0.16406 6.0352 0.64844 8.9688 1.4375 10.258 2.8398 21.25 0.76953 29.777-5.6016 4.3906-2.793 9.1289-5 14.09-6.5664 52.516-21.453 105.03-42.75 157.55-64.043 12.035-6.1016 24.441-11.449 37.145-16.008 8.6914-2.0938 16.562-6.7305 22.609-13.32 6.043-6.5859 9.9883-14.824 11.332-23.664 18.242-68.633 31.355-138.52 39.227-209.1 5.9258-49.633 7.5234-99.746 10.727-149.54 0.8125-9.2109-1.0508-18.465-5.3672-26.645-4.3164-8.1797-10.902-14.938-18.969-19.465zm-850.65-101.67c-0.54297 4.9805-1.5078 9.9102-2.8789 14.73-6.4023 14.41-13.609 28.34-19.531 42.75l-0.003906-0.003906c-1.4844 4.6016-4.1914 8.7148-7.8281 11.902-3.6367 3.1836-8.0703 5.3242-12.824 6.1914-12.328 2.5625-24.336 5.9258-36.824 8.9648zm-95.102 108.39c16.676-2.9336 33.188-6.7266 49.473-11.367l1.7617 5.6055-85.977 34.902c8.8047-18.734 18.09-27.219 34.742-29.141zm-30.422 48.031c24.953-7.3477 49.398-16.332 73.168-26.895 1.2891 7.2812 0.011718 14.785-3.6055 21.234-3.6211 6.4492-9.3594 11.449-16.246 14.148-35.703 16.012-70.605 35.223-105.83 52.836-5.7656 2.7227-11.848 4.6445-22.574 8.8047 21.137-32.664 37.465-62.441 75.09-70.77zm-72.688 89.82c36.184-13.77 70.766-32.02 105.99-48.031l23.855-11.527v32.02c0 9.4453-7.5234 10.086-13.77 12.328-24.496 8.9648-49.152 17.453-73.488 26.898-24.336 9.4453-44.031 18.574-65.965 27.699-6.0859 2.4023-12.168 4.4844-21.934 8.0039v0.003906c6.0195-22.5 23.105-40.367 45.309-47.395zm-54.438 70.445c57.797-21.453 115.92-42.43 173.71-64.043l0.003907 0.003906c6.6641-3.2031 14.289-3.7969 21.367-1.6641 7.082 2.1328 13.109 6.8398 16.898 13.191-36.23 15.684-73.723 28.273-112.08 37.625-36.984 11.047-73.809 22.414-113.2 34.422-0.24609-4.2656 0.92188-8.4922 3.3242-12.027 2.4023-3.5312 5.9062-6.1719 9.9648-7.5039zm-30.738 53.637c7.5703-5.3984 15.605-10.113 24.016-14.086 22.414-8.3242 44.988-16.012 67.727-22.895l166.19-52.355c16.012-4.9648 16.012-4.9648 32.02 9.9258-15.051 4.4844-28.98 9.4453-43.23 12.969h0.003906c-70.465 16.906-138.4 43.012-202.05 77.652l-8.0039 4.0039c-21.773 10.402-22.895 10.082-36.664-15.215zm32.02 39.547c4.0039-2.5625 8.0039-5.2852 12.328-7.6836 83.574-44.508 174.2-69.328 264.66-95.102 16.012-4.4844 22.734 5.7656 32.02 14.891l0.003906-0.003907c-2.6562 1.9453-5.4375 3.7109-8.3281 5.2852-39.387 16.012-78.613 32.02-118.48 46.75-34.262 12.328-69.484 22.254-104.39 32.02-17.934 5.2852-36.344 8.6445-54.117 13.93l0.003906 0.003906c-4.4062 2.0781-9.4922 2.1602-13.965 0.23047-4.4727-1.9297-7.8984-5.6875-9.4102-10.32zm48.031 57.797-22.094-25.617c9.6055-2.7227 16.012-5.2852 23.215-6.5625 65.23-12.324 128.76-32.371 189.25-59.719 25.777-11.688 52.996-20.012 80.055-29.141 6.2461-2.2422 13.77-7.043 22.254 2.8828-32.277 18.703-66.199 34.406-101.35 46.91-44.988 12.969-89.5 28.02-133.69 43.711-19.68 8.4102-38.918 17.812-57.641 28.18zm223.03 105.51c-7.6328-0.53125-15.164-2.0391-22.414-4.4805 20.125-12.758 42.266-22.012 65.48-27.379-12.969 32.82-15.207 34.262-43.066 31.859zm50.273-59.078c-38.105 14.891-75.891 30.742-113.68 46.109-27.859 11.207-55.879 3.5234-83.734 0-2.7227 0-4.9648-6.2461-10.406-13.449l224.15-56.52-0.003907 0.003906c0.29297 5.2227-1.1484 10.391-4.1055 14.707-2.9531 4.3164-7.25 7.5312-12.223 9.1484zm14.41-48.031c-3.3008 1.4844-6.7305 2.6641-10.25 3.5234-42.59 11.047-85.176 22.574-128.09 34.582-30.102 8.3242-59.719 17.934-92.863 28.02l-17.609-22.258c7.043-2.5625 11.527-4.3242 16.012-5.7656 18.414-6.2461 37.145-11.527 55.078-18.734v0.003906c61.723-24.816 124.93-45.777 189.25-62.762 4.3242-1.2812 8.4844-2.7227 12.648-4.3242l11.688-4.4844v-0.96094 0.003907c0.28906-3.0898 0.28906-6.1992 0-9.2852-1.2812-7.6836-5.2852-8.6445-16.012-6.0859-21.773 5.6055-43.551 11.207-64.043 18.574-54.277 18.895-108.07 38.906-162.03 58.277-14.73 5.2852-29.461 10.727-44.508 16.012-6.5625 2.082-14.73 5.6055-20.332-6.7227l-0.003907-0.003906c6.4375-4.2305 13.18-7.9766 20.172-11.207 42.59-16.012 84.535-34.262 128.09-45.629 46.828-12.676 91.938-31.012 134.33-54.598l9.9258-5.2852c7.5234 8.8047 16.012 17.293 22.574 26.738v0.003906c1.5195 1.9961 2.6094 4.2852 3.2031 6.7227 1.4414 6.0859-2.4023 10.566-10.727 12.809h-0.80078c-1.9609 22.523-15.48 42.41-35.703 52.516zm740.17-144.1c-7.6836 53.797-20.652 106.95-30.902 160.11v0.003907c-0.97266 6.1641-3.668 11.934-7.7734 16.633-4.1094 4.7031-9.4609 8.1484-15.441 9.9414-42.91 17.133-84.695 37.625-128.09 54.438-29.504 12.477-60.184 21.973-91.578 28.34-25.965 3.4141-52.293 2.9805-78.133-1.2812-56.211-8.0039-112.94-11.855-169.71-11.527h-167.95c-8.8047 0-17.613-1.4414-31.223-2.5625 9.6055-23.055 17.293-42.43 25.938-61.16 9.9258-21.773 21.293-42.91 32.02-64.043h0.007813c8.7812-15.387 12.297-33.223 10.016-50.797-2.2852-17.57-10.242-33.914-22.664-46.547-31.004-36.68-67.645-68.188-108.55-93.344l-56.039-32.02h0.003906c-6.8711-2.9453-12.43-8.293-15.645-15.043-3.2109-6.7461-3.8555-14.434-1.8086-21.621 6.957-39.684 19.516-78.172 37.305-114.32 10.988-22.699 19.781-46.395 26.258-70.77 7.6133-25.777 26.965-46.438 52.195-55.715 101.75-45.434 210.23-73.934 321.17-84.379 38.586-4.4844 77.332-8.1641 115.76-13.289 16.348-3.418 33.324 1.5 45.312 13.129 42.266 41.789 85.176 83.738 126.32 126.96 27.219 28.66 50.914 60.68 77.812 89.66h-0.003906c17.332 18.457 36.125 35.484 56.199 50.914 4.7031 2.8984 8.4922 7.0664 10.926 12.023 2.4375 4.957 3.4219 10.504 2.8438 15.996-4.8047 53.477-7.0469 107.27-14.57 160.43z"/>
</svg>
