<?xml version="1.0" encoding="UTF-8"?>
<svg width="1200pt" height="1200pt" version="1.1" viewBox="0 0 1200 1200" xmlns="http://www.w3.org/2000/svg">
 <g>
  <path d="m300.09 267.31c0.77344-24.594-0.60547-53.816 11-82.363 5.3008-11.234 13.559-20.816 23.887-27.719 23.891-19.359 48.648-38.312 80.035-43.371 41.035-5.3008 82.723-2.0664 122.45 9.5039 10.262 2.6055 14.953 20.66 27.215 15.242 9.9141-4.3789 5.7188-19.57 10.879-28.734 31.883-56.641 125.3-101.65 195.3-69.668 40.301 18.41 63.391 49.094 84.957 82.613 33.273 51.816 48.566 113.15 43.523 174.52-2.0156 36.332-12.25 71.734-29.934 103.54-5.5117 9-13.613 16.125-23.242 20.438-32.137 16.652-61.426 38.453-95.508 51.988-9.3438 3.7109-5.168 15.441-2.8008 23.059 17.285 55.586 28.18 112.85 42.211 169.2 14.449 58.035 29.934 115.69 45.852 173.31h0.003906c14.484 48.27 26.449 97.262 35.848 146.77 8.3516 50.035 18.984 100.3 16.125 151.73v0.003906c-0.12109 3.2305 0.58594 6.4414 2.0547 9.3242 2.5156 3.1836 3.6445 7.25 3.125 11.273-0.51953 4.0273-2.6406 7.6758-5.8828 10.117-4.8242 2.4922-10.406 3.0977-15.656 1.6914-5.2461-1.4062-9.7773-4.7188-12.711-9.293-20.234-31.086-39.508-62.801-59.797-93.852-16.484-23.797-29.434-49.855-38.449-77.363-6.0469-19.945-12.508-40.359-17.582-60.32-4.4961-17.68-7.082-36.324-13.301-53.707-9.1523-25.574-14.844-52.117-23.164-77.859-11.465-35.48-23.695-70.773-37.227-105.51-15.059-38.664-18.941-80.09-31.629-119.25-3.0195-9.3242-6.2461-18.609-9.957-27.676-13.738-33.555-23.066-37.852-67.871-27.391-34.746 8.5352-70.512 12.207-106.27 10.922-44.207-2.0547-74.762-27.281-98.203-62.898v-0.003906c-21.602-36.457-38.09-75.711-48.996-116.66-7.9922-25.004-6.3125-51.023-6.2852-81.609zm464.64 401.37c-17.516-37.973-21.832-76.719-31.18-114.24-3.3516-21.449-9.2383-42.422-17.543-62.48-10.27-19.332-3.9102-29.344 9.4414-40.668v-0.003906c7.7148-5.1562 16.332-8.8242 25.398-10.805 37.82-13.445 72.309-31.457 96.316-65.406 19.25-27.223 19.789-59.066 23.461-90.156 2.3047-11.738 2.9531-23.742 1.9219-35.66-6.9141-40.273-16.637-80.172-42.016-113.36-16.812-21.988-31.113-47.176-56.414-61.047-42.297-23.188-95.438-30.754-147.52 16.965-8.6055 7.8828-21.312 11.289-25.48 24.172h-0.003906c-7.6797 24.504-10.566 50.258-8.5 75.855 3.8945 26.922 10.945 53.293 21.004 78.566 16.504 52.754 32.898 105.55 50.305 158.01 14.867 44.812 30.977 89.211 46.742 133.72v-0.003907c8.9609 30.398 4.207 63.191-13.023 89.789-10.246 18.098-3.6914 23.578 2.8164 37.355 8.4531-42.191 11.887-43.289 64.273-20.613zm-438.17-400.16c2.7578 22.828-4.3672 42.855 2.6875 62.988 11.66 33.27 23.121 66.402 36.609 99.137 15.066 36.555 42.617 53.707 74.602 65.672 35.008 13.098 70.527-2.9727 105.91-5.6914 31.508-2.418 67.949-26.797 92.375 16.473 5.6406 9.9961 9.4297 20.398 14.078 30.633v0.003906c10.48 21.027 17.184 43.734 19.797 67.086-0.79297 3.4102 1.1719 6.8555 4.5078 7.9102 6.1445 0.45312 4.0234-5.0859 5.1797-8.4883v0.003906c6.3555-19.805 4.457-41.336-5.2617-59.727-20.777-42.324-27.285-88.945-43.227-132.66-14.633-40.121-26.812-81.133-40.496-121.61-9.6445-28.531-24.273-55.453-28.555-85.695-3.457-24.434-29.379-54.781-51.828-57.41v0.003906c-27.918-4.8828-56.293-6.668-84.605-5.3203-54.508 5.4062-89.758 33.348-102.26 86.379-3.5938 15.254 6.1914 28.879 0.48828 40.316zm383.26 444.72c-0.94922 26.258 13.484 44.707 17.969 66.164h-0.003906c6.5938 25.867 15.027 51.23 25.246 75.891 17.457 47.723 24.434 98.641 44.598 145.91v0.003906c13.668 29.16 29.605 57.207 47.656 83.883 1.2031 3.9531 5.1992 6.3633 9.2617 5.582 1.5234-0.73828 2.6914-2.0586 3.2383-3.6641 0.55078-1.6055 0.43359-3.3633-0.32422-4.8828-7.5156-26.883-7.0781-55.051-12.816-82.117-14.047-66.23-30.992-131.8-49.789-196.83-9.3477-32.344-11.098-67.312-31.652-97.043-5.8047 8.4688-14.934 14.078-25.109 15.434-10.18 1.3555-20.453-1.6719-28.273-8.3242z"/>
  <path d="m757.63 408.18c-23.199 0.58203-46.008-6.0586-65.273-19.004-19.262-12.945-34.027-31.555-42.254-53.254-10.523-23.398-18.309-47.938-23.191-73.125-6.5469-39.82-8.3008-80.277-5.2305-120.51 6.2539-58.359 56.004-79.285 103.19-74.574 15.113 1.5078 30.594 17.824 42.359 30.625 27.617 29.418 49.566 63.684 64.742 101.07 5.4922 16.836 8.5078 34.379 8.9531 52.078 3.6562 28.176 5.7148 56.531 6.1602 84.938 1.0742 12.668-4.6562 24.953-15.051 32.27-11.094 8.0195-21.68 16.727-31.695 26.062-11.453 10.734-27.172 15.68-42.711 13.43zm-5.1484-32.074c0.90234 0.15625 3.5156 0.61719 6.1367 1.0547 24.152 4.0117 55.73-23.941 57.512-49.477 5.6211-50.055-3.8477-100.65-27.188-145.29-19.027-34.703-39.719-63.727-73.102-84.168-3.7695-2.6562-8.375-3.8516-12.961-3.3555-15.594 2.3594-29.848 10.156-40.246 22.016-10.395 11.855-16.262 27.008-16.562 42.777 3.3984 53.102 4.9102 106.23 25.332 157.3 16.844 42.137 34.844 58.953 81.078 59.137z"/>
  <path d="m584.07 382.55c-2.5469 8.1914 5.8672 25.121-2.1211 41.109-14.531 29.348-43.254 49.047-75.863 52.031-55.168 6.8594-102.29-12.074-132.44-60.715-15.309-24.691-18.348-54.695-24.973-82.836-5.8125-26.746-8.4414-54.082-7.8359-81.441 0.21875-42.211 20.469-72.148 64.512-87.656 30.262-10.656 61.688-7.9727 92.805-7.8086 4.5195 0.12109 8.8867 1.6758 12.469 4.4375 3.5781 2.7617 6.1914 6.5898 7.457 10.93 10.055 20.953 28.402 37.145 37.629 59.332 5.3555 14.949 9.6367 30.258 12.812 45.812 1.8711 9.6328 4.4805 19.113 7.8047 28.348 9.6914 24.957 12.371 52.09 7.7461 78.457zm-22.691-8.8438c-1.1445-10.477-0.99219-20.875-2.8906-31.535-3.5273-19.836-12.164-37.816-16.594-57.234-10.727-47.023-26.77-88.234-82.992-100.48-44.523-9.6992-91.977 22.594-92.055 62.312h0.003906c0.83203 29.18 3.9961 58.242 9.4688 86.914 11.848 75.332 28.754 95.027 95.656 112.56 39.207 10.273 96.383-19.211 89.402-72.531z"/>
 </g>
</svg>
